<svg xmlns="http://www.w3.org/2000/svg" xmlns:v="https://svgstorm.com"
viewBox="340 248 360 370"
width="360"
height="370">
<g fill="None" fill-opacity="0.0" stroke="#00C9A7" stroke-opacity="1.00" stroke-width="0.3"><path d="
M 0.00 1.00 
C 341.34 1.00 682.67 1.00 1024.00 1.00
L 1024.00 0.00
L 0.00 0.00
L 0.00 1.00 Z"/>
</g>
<g fill="None" fill-opacity="0.0" stroke="none" stroke-opacity="1.00" stroke-width="0.3"><path d="
M 0.00 2.00 
C 341.34 2.00 682.67 2.00 1024.00 2.00
L 1024.00 1.00
C 682.67 1.00 341.34 1.00 0.00 1.00
L 0.00 2.00 Z"/>
</g>
<g fill="None" fill-opacity="0.0" stroke="none" stroke-opacity="1.00" stroke-width="0.3"><path d="
M 0.00 1024.00 
L 1024.00 1024.00
L 1024.00 2.00
C 682.67 2.00 341.34 2.00 0.00 2.00
L 0.00 1024.00
M 528.00 271.00 
C 528.00 279.33 528.00 287.67 528.00 296.00
C 532.18 298.93 540.79 291.75 540.00 301.00 C 539.21 310.26 540.14 308.49 540.00 319.00 C 539.86 329.51 540.10 343.49 540.00 354.00 C 539.90 364.51 540.07 362.61 540.00 372.00
C 536.67 372.00 533.33 372.00 530.00 372.00
C 530.00 376.33 530.00 380.67 530.00 385.00
C 518.00 385.00 506.00 385.00 494.00 385.00
C 495.35 377.15 494.00 368.89 484.00 372.00
C 484.00 362.33 484.00 352.67 484.00 343.00
C 485.00 343.00 486.00 343.00 487.00 343.00
C 491.17 340.92 497.10 342.48 502.00 342.00
C 504.69 350.36 496.73 349.31 491.00 349.00
C 491.00 354.67 491.00 360.33 491.00 366.00
C 495.70 369.29 506.20 364.28 512.00 366.00 C 517.80 367.72 526.90 364.71 533.00 366.00
C 533.00 345.00 533.00 324.00 533.00 303.00
C 519.00 303.00 505.00 303.00 491.00 303.00
C 491.00 306.67 491.00 310.33 491.00 314.00
C 495.41 313.39 505.52 313.37 501.00 320.00
C 498.99 322.01 486.95 321.95 485.00 320.00
C 480.47 315.47 486.41 309.47 484.00 303.00 C 481.59 296.53 490.41 294.16 496.00 296.00
C 496.00 287.67 496.00 279.33 496.00 271.00
C 491.27 272.29 488.80 269.72 490.00 265.00
C 504.67 265.00 519.33 265.00 534.00 265.00
C 535.29 269.73 532.72 272.20 528.00 271.00
M 485.00 334.00 
C 483.50 332.50 484.11 330.16 484.00 328.00
C 489.67 328.00 495.33 328.00 501.00 328.00
C 504.46 330.38 500.94 336.56 497.00 335.00 C 493.05 333.43 488.04 337.04 485.00 334.00
M 652.00 446.00 
C 652.46 450.72 652.45 456.35 652.00 461.00
C 652.00 509.72 617.00 556.74 573.00 576.00
C 572.34 564.90 587.11 563.08 594.25 556.25 C 601.38 549.42 609.78 544.42 616.25 536.25 C 622.71 528.08 627.42 520.80 632.31 511.31 C 637.19 501.81 641.15 491.18 643.33 480.33 C 645.51 469.48 647.16 453.51 646.00 442.00 C 644.84 430.49 641.27 418.92 637.23 408.77 C 633.19 398.62 628.47 391.09 622.70 382.30 C 616.92 373.51 609.03 368.50 601.75 361.25 C 594.48 354.00 585.15 350.88 576.77 345.23 C 568.40 339.58 550.35 341.62 550.00 330.00
C 604.34 339.49 650.61 390.29 652.00 446.00
M 623.00 478.00 
C 619.86 467.54 621.61 454.22 620.67 443.33 C 619.73 432.44 616.39 422.29 612.08 412.92 C 607.76 403.56 602.72 397.49 596.25 389.75 C 589.78 382.02 581.82 378.73 574.30 372.70 C 566.79 366.66 550.32 367.49 550.00 357.00
C 602.70 365.80 640.85 427.32 623.00 478.00
M 568.00 558.00 
C 568.00 566.33 568.00 574.67 568.00 583.00
C 564.33 583.00 560.67 583.00 557.00 583.00
C 556.89 556.85 557.15 522.31 557.00 497.00 C 556.85 471.69 536.46 454.00 513.00 454.00 C 489.54 454.00 468.17 470.27 468.00 496.00 C 467.84 521.74 468.12 556.45 468.00 583.00
C 446.00 583.00 424.00 583.00 402.00 583.00
C 403.00 539.50 395.03 482.12 417.92 445.92 C 440.82 409.73 478.79 392.13 519.00 394.00 C 559.21 395.87 592.15 421.37 608.77 457.23 C 625.39 493.09 606.51 544.35 568.00 558.00
M 544.00 584.00 
C 534.23 584.50 528.13 583.34 518.00 584.00 C 507.87 584.66 503.48 582.73 492.00 584.00 C 480.52 585.27 483.13 578.40 482.00 568.00 C 480.87 557.60 485.08 552.97 495.00 555.00 C 504.92 557.03 512.85 553.13 521.00 555.00 C 529.15 556.87 540.78 550.70 543.97 558.03 C 547.16 565.36 541.64 576.34 544.00 584.00
M 476.00 593.00 
C 476.00 598.58 474.17 603.69 473.00 609.00
C 455.03 613.09 418.31 597.82 416.00 624.00
C 479.33 624.00 542.67 624.00 606.00 624.00
C 606.35 615.48 600.90 607.73 591.00 609.00 C 581.10 610.28 570.54 607.20 560.00 609.00 C 549.46 610.80 544.20 603.77 545.00 593.00
C 552.14 590.74 552.36 598.15 553.00 603.00
C 566.82 603.54 582.35 602.29 596.00 603.00 C 609.65 603.71 613.55 618.74 612.00 630.00
C 544.33 630.00 476.67 630.00 409.00 630.00
C 409.42 623.20 407.85 613.65 413.77 608.77 C 419.69 603.89 425.39 601.86 434.00 603.00 C 442.61 604.14 450.34 600.89 460.00 603.00 C 469.66 605.11 467.47 592.33 476.00 593.00
M 327.00 657.00 
C 333.33 660.18 326.61 672.60 319.98 668.02 C 313.34 663.44 320.01 653.49 327.00 657.00
M 272.00 659.00 
C 296.36 659.00 310.45 680.04 304.02 704.02 C 297.60 728.01 269.95 730.75 248.00 728.00
C 248.00 705.00 248.00 682.00 248.00 659.00
C 250.08 656.02 256.64 659.02 260.00 658.00 C 263.36 656.98 269.27 658.74 272.00 659.00
M 587.00 659.00 
C 587.00 679.00 587.00 699.00 587.00 719.00
C 596.90 721.92 620.36 711.46 618.00 728.00
C 604.33 728.00 590.67 728.00 577.00 728.00
C 577.00 705.00 577.00 682.00 577.00 659.00
C 580.33 659.00 583.67 659.00 587.00 659.00
M 383.00 728.00 
C 377.99 728.58 372.11 728.55 373.00 722.00
C 366.26 728.69 355.46 733.03 346.31 726.69 C 337.15 720.36 340.82 707.62 347.75 701.75 C 354.67 695.87 373.51 701.81 372.07 691.93 C 370.63 682.05 352.42 685.64 346.00 689.00
C 346.35 686.13 345.73 683.61 345.00 681.00
C 354.94 677.32 372.29 672.36 379.75 684.25 C 387.21 696.14 380.86 714.43 383.00 728.00
M 434.00 685.00 
C 431.79 677.92 437.36 677.11 443.00 678.00
C 444.09 690.70 441.55 707.73 443.00 720.00 C 444.45 732.27 439.01 743.38 428.31 747.31 C 417.60 751.23 397.46 751.28 402.00 737.00
C 414.91 746.33 439.26 738.51 432.00 720.00
C 419.01 739.17 392.43 722.30 394.00 702.00 C 395.57 681.70 418.54 667.35 434.00 685.00
M 493.00 728.00 
C 489.67 725.67 492.81 717.29 492.00 713.00 C 491.19 708.71 492.42 700.65 492.00 696.00
C 489.84 685.56 476.71 681.12 470.75 691.75 C 464.78 702.38 471.59 716.44 469.00 728.00
C 465.67 728.00 462.33 728.00 459.00 728.00
C 455.96 725.87 458.38 715.94 458.00 712.00 C 457.62 708.06 457.44 698.99 458.00 695.00 C 458.56 691.01 455.83 680.22 459.00 678.00
C 463.24 675.03 471.20 679.42 468.00 685.00
C 474.94 675.77 492.88 672.29 499.75 684.25 C 506.63 696.21 501.25 714.41 503.00 728.00
C 499.67 728.00 496.33 728.00 493.00 728.00
M 545.00 677.00 
C 575.49 681.95 568.09 735.11 535.93 729.07 C 503.77 723.03 510.58 671.41 545.00 677.00
M 667.00 706.00 
C 655.67 706.00 644.33 706.00 633.00 706.00
C 631.44 722.18 652.78 724.17 663.00 717.00
C 668.02 731.81 644.47 731.75 634.31 726.69 C 624.15 721.64 619.37 705.92 622.98 694.98 C 626.58 684.03 637.25 674.27 650.00 677.00 C 662.75 679.73 668.82 693.73 667.00 706.00
M 723.00 692.00 
C 723.87 696.18 725.05 705.42 724.00 710.00 C 722.95 714.58 726.67 725.43 723.00 728.00
C 722.32 728.47 714.68 728.47 714.00 728.00
C 710.67 725.67 713.81 717.29 713.00 713.00 C 712.19 708.72 713.42 700.65 713.00 696.00
C 710.89 685.82 697.55 681.04 691.70 691.70 C 685.84 702.35 692.57 716.45 690.00 728.00
C 686.33 728.00 682.67 728.00 679.00 728.00
C 678.46 720.36 679.72 713.74 679.00 706.00 C 678.28 698.26 680.38 692.12 679.00 684.00 C 677.62 675.89 691.88 675.40 689.00 685.00
C 697.95 672.49 722.29 674.74 723.00 692.00
M 770.00 680.00 
C 770.03 682.74 768.37 685.08 769.00 688.00
C 763.04 683.24 741.71 685.78 747.75 694.25 C 753.80 702.71 765.74 698.32 770.30 707.70 C 774.87 717.07 768.22 727.25 758.93 728.93 C 749.64 730.60 731.49 729.94 737.00 717.00
C 741.80 719.49 759.80 725.84 760.97 715.97 C 762.14 706.10 746.26 707.57 740.77 702.23 C 735.28 696.89 733.91 685.12 742.25 680.25 C 750.59 675.38 761.42 676.45 770.00 680.00
M 328.00 678.00 
C 328.00 694.67 328.00 711.33 328.00 728.00
C 324.67 728.00 321.33 728.00 318.00 728.00
C 318.00 711.33 318.00 694.67 318.00 678.00
C 321.33 678.00 324.67 678.00 328.00 678.00 Z"/>
</g>
<g fill="None" fill-opacity="0.0" stroke="#00C9A7" stroke-opacity="1.00" stroke-width="0.3"><path d="
M 485.00 320.00 
C 486.22 320.86 499.76 320.84 501.00 320.00
C 505.52 313.37 495.41 313.39 491.00 314.00
C 491.00 310.33 491.00 306.67 491.00 303.00
C 505.00 303.00 519.00 303.00 533.00 303.00
C 533.00 324.00 533.00 345.00 533.00 366.00
C 526.90 364.71 517.80 367.72 512.00 366.00 C 506.20 364.28 495.70 369.29 491.00 366.00
C 487.39 363.47 491.34 356.46 490.00 352.00 C 488.66 347.54 497.79 347.25 501.00 348.00
C 502.89 339.60 491.80 344.13 487.00 343.00
C 486.00 343.00 485.00 343.00 484.00 343.00
C 484.00 352.67 484.00 362.33 484.00 372.00
C 494.00 368.89 495.35 377.15 494.00 385.00
C 506.00 385.00 518.00 385.00 530.00 385.00
C 530.00 380.67 530.00 376.33 530.00 372.00
C 533.33 372.00 536.67 372.00 540.00 372.00
C 540.07 362.61 539.90 364.51 540.00 354.00 C 540.10 343.49 539.86 329.51 540.00 319.00 C 540.14 308.49 539.21 310.26 540.00 301.00 C 540.79 291.75 532.18 298.93 528.00 296.00
C 525.69 294.38 526.96 286.96 527.00 284.00 C 527.04 281.04 525.74 272.99 528.00 271.00
C 532.72 272.20 535.29 269.73 534.00 265.00
C 519.33 265.00 504.67 265.00 490.00 265.00
C 488.80 269.72 491.27 272.29 496.00 271.00
C 496.00 279.33 496.00 287.67 496.00 296.00
C 490.41 294.16 481.59 296.53 484.00 303.00 C 486.41 309.47 480.47 315.47 485.00 320.00
M 521.00 271.00 
C 521.00 279.33 521.00 287.67 521.00 296.00
C 515.00 296.00 509.00 296.00 503.00 296.00
C 503.00 287.67 503.00 279.33 503.00 271.00
C 509.00 271.00 515.00 271.00 521.00 271.00
M 524.00 372.00 
C 526.18 384.87 507.75 376.72 500.00 379.00
C 497.82 366.13 516.25 374.28 524.00 372.00 Z"/>
</g>
<g fill="None" fill-opacity="0.0" stroke="none" stroke-opacity="1.00" stroke-width="0.3"><path d="
M 521.00 271.00 
C 515.00 271.00 509.00 271.00 503.00 271.00
C 503.00 279.33 503.00 287.67 503.00 296.00
C 509.00 296.00 515.00 296.00 521.00 296.00
C 521.00 287.67 521.00 279.33 521.00 271.00 Z"/>
</g>
<g fill="None" fill-opacity="0.0" stroke="none" stroke-opacity="1.00" stroke-width="0.3"><path d="
M 528.00 296.00 
C 528.00 287.67 528.00 279.33 528.00 271.00
C 525.74 272.99 527.04 281.04 527.00 284.00 C 526.96 286.96 525.69 294.38 528.00 296.00 Z"/>
</g>
<g fill="None" fill-opacity="0.0" stroke="none" stroke-opacity="1.00" stroke-width="0.3"><path d="
M 501.00 320.00 
C 499.76 320.84 486.22 320.86 485.00 320.00
C 486.95 321.95 498.99 322.01 501.00 320.00 Z"/>
</g>
<g fill="None" fill-opacity="0.0" stroke="#00C9A7" stroke-opacity="1.00" stroke-width="0.3"><path d="
M 485.00 334.00 
C 488.61 336.49 496.96 332.13 501.00 334.00
C 501.00 332.00 501.00 330.00 501.00 328.00
C 495.33 328.00 489.67 328.00 484.00 328.00
C 484.11 330.16 483.50 332.50 485.00 334.00 Z"/>
</g>
<g fill="None" fill-opacity="0.0" stroke="none" stroke-opacity="1.00" stroke-width="0.3"><path d="
M 485.00 334.00 
C 488.04 337.04 493.05 333.43 497.00 335.00 C 500.94 336.56 504.46 330.38 501.00 328.00
C 501.00 330.00 501.00 332.00 501.00 334.00
C 496.96 332.13 488.61 336.49 485.00 334.00 Z"/>
</g>
<g fill="None" fill-opacity="0.0" stroke="#00C9A7" stroke-opacity="1.00" stroke-width="0.3"><path d="
M 652.00 461.00 
C 652.00 456.00 652.00 451.00 652.00 446.00
C 650.61 390.29 604.34 339.49 550.00 330.00
C 550.35 341.62 568.40 339.58 576.77 345.23 C 585.15 350.88 594.48 354.00 601.75 361.25 C 609.03 368.50 616.92 373.51 622.70 382.30 C 628.47 391.09 633.19 398.62 637.23 408.77 C 641.27 418.92 644.84 430.49 646.00 442.00 C 647.16 453.51 645.51 469.48 643.33 480.33 C 641.15 491.18 637.19 501.81 632.31 511.31 C 627.42 520.80 622.71 528.08 616.25 536.25 C 609.78 544.42 601.38 549.42 594.25 556.25 C 587.11 563.08 572.34 564.90 573.00 576.00
C 617.00 556.74 652.00 509.72 652.00 461.00 Z"/>
</g>
<g fill="None" fill-opacity="0.0" stroke="none" stroke-opacity="1.00" stroke-width="0.3"><path d="
M 487.00 343.00 
C 491.80 344.13 502.89 339.60 501.00 348.00
C 497.79 347.25 488.66 347.54 490.00 352.00 C 491.34 356.46 487.39 363.47 491.00 366.00
C 491.00 360.33 491.00 354.67 491.00 349.00
C 496.73 349.31 504.69 350.36 502.00 342.00
C 497.10 342.48 491.17 340.92 487.00 343.00 Z"/>
</g>
<g fill="None" fill-opacity="0.0" stroke="#00C9A7" stroke-opacity="1.00" stroke-width="0.3"><path d="
M 623.00 478.00 
C 640.85 427.32 602.70 365.80 550.00 357.00
C 550.32 367.49 566.79 366.66 574.30 372.70 C 581.82 378.73 589.78 382.02 596.25 389.75 C 602.72 397.49 607.76 403.56 612.08 412.92 C 616.39 422.29 619.73 432.44 620.67 443.33 C 621.61 454.22 619.86 467.54 623.00 478.00 Z"/>
</g>
<g fill="None" fill-opacity="0.0" stroke="none" stroke-opacity="1.00" stroke-width="0.3"><path d="
M 524.00 372.00 
C 516.25 374.28 497.82 366.13 500.00 379.00
C 507.75 376.72 526.18 384.87 524.00 372.00 Z"/>
</g>
<g fill="None" fill-opacity="0.0" stroke="#00C9A7" stroke-opacity="1.00" stroke-width="0.3"><path d="
M 568.00 558.00 
C 606.51 544.35 625.39 493.09 608.77 457.23 C 592.15 421.37 559.21 395.87 519.00 394.00 C 478.79 392.13 440.82 409.73 417.92 445.92 C 395.03 482.12 403.00 539.50 402.00 583.00
C 424.00 583.00 446.00 583.00 468.00 583.00
C 468.12 556.45 467.84 521.74 468.00 496.00 C 468.17 470.27 489.54 454.00 513.00 454.00 C 536.46 454.00 556.85 471.69 557.00 497.00 C 557.15 522.31 556.89 556.85 557.00 583.00
C 560.67 583.00 564.33 583.00 568.00 583.00
C 568.00 574.67 568.00 566.33 568.00 558.00
M 435.00 441.00 
C 438.21 436.50 442.88 432.52 447.00 429.00
C 484.74 396.75 539.78 398.81 576.25 430.75 C 612.71 462.69 613.31 522.20 568.00 546.00
C 569.32 515.65 572.49 471.82 545.75 453.25 C 519.01 434.67 485.03 438.93 466.25 466.25 C 447.46 493.57 461.31 539.68 457.00 572.00
C 442.33 572.00 427.67 572.00 413.00 572.00
C 414.93 527.08 403.77 476.57 435.00 441.00 Z"/>
</g>
<g fill="None" fill-opacity="0.0" stroke="none" stroke-opacity="1.00" stroke-width="0.3"><path d="
M 447.00 429.00 
C 443.24 432.76 438.34 437.02 435.00 441.00
C 403.77 476.57 414.93 527.08 413.00 572.00
C 427.67 572.00 442.33 572.00 457.00 572.00
C 461.31 539.68 447.46 493.57 466.25 466.25 C 485.03 438.93 519.01 434.67 545.75 453.25 C 572.49 471.82 569.32 515.65 568.00 546.00
C 613.31 522.20 612.71 462.69 576.25 430.75 C 539.78 398.81 484.74 396.75 447.00 429.00
M 515.00 418.00 
C 522.79 420.21 518.08 434.59 510.00 431.00 C 501.92 427.41 507.00 415.73 515.00 418.00
M 490.00 424.00 
C 496.13 427.31 489.37 440.75 482.32 435.68 C 475.28 430.61 482.22 419.80 490.00 424.00
M 542.00 424.00 
C 548.87 426.57 545.19 439.27 537.33 436.67 C 529.46 434.06 533.26 420.73 542.00 424.00
M 443.00 463.00 
C 451.55 465.43 446.86 480.55 438.00 477.00 C 429.14 473.45 434.25 460.51 443.00 463.00 Z"/>
</g>
<g fill="None" fill-opacity="0.0" stroke="#00C9A7" stroke-opacity="1.00" stroke-width="0.3"><path d="
M 515.00 418.00 
C 507.00 415.73 501.92 427.41 510.00 431.00 C 518.08 434.59 522.79 420.21 515.00 418.00 Z"/>
</g>
<g fill="None" fill-opacity="0.0" stroke="#00C9A7" stroke-opacity="1.00" stroke-width="0.3"><path d="
M 490.00 424.00 
C 482.22 419.80 475.28 430.61 482.32 435.68 C 489.37 440.75 496.13 427.31 490.00 424.00 Z"/>
</g>
<g fill="None" fill-opacity="0.0" stroke="#00C9A7" stroke-opacity="1.00" stroke-width="0.3"><path d="
M 542.00 424.00 
C 533.26 420.73 529.46 434.06 537.33 436.67 C 545.19 439.27 548.87 426.57 542.00 424.00 Z"/>
</g>
<g fill="None" fill-opacity="0.0" stroke="none" stroke-opacity="1.00" stroke-width="0.3"><path d="
M 435.00 441.00 
C 438.34 437.02 443.24 432.76 447.00 429.00
C 442.88 432.52 438.21 436.50 435.00 441.00 Z"/>
</g>
<g fill="None" fill-opacity="0.0" stroke="none" stroke-opacity="1.00" stroke-width="0.3"><path d="
M 652.00 461.00 
C 652.45 456.35 652.46 450.72 652.00 446.00
C 652.00 451.00 652.00 456.00 652.00 461.00 Z"/>
</g>
<g fill="None" fill-opacity="0.0" stroke="#00C9A7" stroke-opacity="1.00" stroke-width="0.3"><path d="
M 443.00 463.00 
C 434.25 460.51 429.14 473.45 438.00 477.00 C 446.86 480.55 451.55 465.43 443.00 463.00 Z"/>
</g>
<g fill="None" fill-opacity="0.0" stroke="#00C9A7" stroke-opacity="1.00" stroke-width="0.3"><path d="
M 544.00 584.00 
C 541.64 576.34 547.16 565.36 543.97 558.03 C 540.78 550.70 529.15 556.87 521.00 555.00 C 512.85 553.13 504.92 557.03 495.00 555.00 C 485.08 552.97 480.87 557.60 482.00 568.00 C 483.13 578.40 480.52 585.27 492.00 584.00 C 503.48 582.73 507.87 584.66 518.00 584.00 C 528.13 583.34 534.23 584.50 544.00 584.00
M 537.00 562.00 
C 537.00 567.00 537.00 572.00 537.00 577.00
C 521.00 577.00 505.00 577.00 489.00 577.00
C 489.00 572.00 489.00 567.00 489.00 562.00
C 505.00 562.00 521.00 562.00 537.00 562.00 Z"/>
</g>
<g fill="None" fill-opacity="0.0" stroke="none" stroke-opacity="1.00" stroke-width="0.3"><path d="
M 537.00 562.00 
C 521.00 562.00 505.00 562.00 489.00 562.00
C 489.00 567.00 489.00 572.00 489.00 577.00
C 505.00 577.00 521.00 577.00 537.00 577.00
C 537.00 572.00 537.00 567.00 537.00 562.00 Z"/>
</g>
<g fill="None" fill-opacity="0.0" stroke="#00C9A7" stroke-opacity="1.00" stroke-width="0.3"><path d="
M 476.00 593.00 
C 467.47 592.33 469.66 605.11 460.00 603.00 C 450.34 600.89 442.61 604.14 434.00 603.00 C 425.39 601.86 419.69 603.89 413.77 608.77 C 407.85 613.65 409.42 623.20 409.00 630.00
C 476.67 630.00 544.33 630.00 612.00 630.00
C 613.55 618.74 609.65 603.71 596.00 603.00 C 582.35 602.29 566.82 603.54 553.00 603.00
C 552.36 598.15 552.14 590.74 545.00 593.00
C 544.20 603.77 549.46 610.80 560.00 609.00 C 570.54 607.20 581.10 610.28 591.00 609.00 C 600.90 607.73 606.35 615.48 606.00 624.00
C 542.67 624.00 479.33 624.00 416.00 624.00
C 418.31 597.82 455.03 613.09 473.00 609.00
C 474.17 603.69 476.00 598.58 476.00 593.00 Z"/>
</g>
<g fill="None" fill-opacity="0.0" stroke="#00C9A7" stroke-opacity="1.00" stroke-width="0.3"><path d="
M 327.00 657.00 
C 320.01 653.49 313.34 663.44 319.98 668.02 C 326.61 672.60 333.33 660.18 327.00 657.00 Z"/>
</g>
<g fill="None" fill-opacity="0.0" stroke="none" stroke-opacity="1.00" stroke-width="0.3"><path d="
M 248.00 659.00 
C 256.00 659.00 264.00 659.00 272.00 659.00
C 269.27 658.74 263.36 656.98 260.00 658.00 C 256.64 659.02 250.08 656.02 248.00 659.00 Z"/>
</g>
<g fill="None" fill-opacity="0.0" stroke="#00C9A7" stroke-opacity="1.00" stroke-width="0.3"><path d="
M 272.00 659.00 
C 264.00 659.00 256.00 659.00 248.00 659.00
C 248.00 682.00 248.00 705.00 248.00 728.00
C 269.95 730.75 297.60 728.01 304.02 704.02 C 310.45 680.04 296.36 659.00 272.00 659.00
M 259.00 719.00 
C 255.93 716.85 258.34 707.09 258.00 703.00 C 257.66 698.91 257.48 689.13 258.00 685.00 C 258.52 680.87 255.80 670.24 259.00 668.00
C 263.07 665.15 273.37 668.84 278.07 668.93 C 282.78 669.02 286.81 673.26 289.92 677.08 C 293.02 680.90 294.01 687.84 294.00 693.00 C 293.99 698.16 293.39 705.52 290.23 709.23 C 287.07 712.94 283.47 717.32 278.92 717.92 C 274.38 718.53 262.94 721.76 259.00 719.00 Z"/>
</g>
<g fill="None" fill-opacity="0.0" stroke="#00C9A7" stroke-opacity="1.00" stroke-width="0.3"><path d="
M 587.00 659.00 
C 583.67 659.00 580.33 659.00 577.00 659.00
C 577.00 682.00 577.00 705.00 577.00 728.00
C 590.67 728.00 604.33 728.00 618.00 728.00
C 620.36 711.46 596.90 721.92 587.00 719.00
C 587.00 699.00 587.00 679.00 587.00 659.00 Z"/>
</g>
<g fill="None" fill-opacity="0.0" stroke="none" stroke-opacity="1.00" stroke-width="0.3"><path d="
M 259.00 719.00 
C 259.00 702.00 259.00 685.00 259.00 668.00
C 255.80 670.24 258.52 680.87 258.00 685.00 C 257.48 689.13 257.66 698.91 258.00 703.00 C 258.34 707.09 255.93 716.85 259.00 719.00 Z"/>
</g>
<g fill="None" fill-opacity="0.0" stroke="none" stroke-opacity="1.00" stroke-width="0.3"><path d="
M 259.00 719.00 
C 262.94 721.76 274.38 718.53 278.92 717.92 C 283.47 717.32 287.07 712.94 290.23 709.23 C 293.39 705.52 293.99 698.16 294.00 693.00 C 294.01 687.84 293.02 680.90 289.92 677.08 C 286.81 673.26 282.78 669.02 278.07 668.93 C 273.37 668.84 263.07 665.15 259.00 668.00
C 259.00 685.00 259.00 702.00 259.00 719.00 Z"/>
</g>
<g fill="None" fill-opacity="0.0" stroke="#00C9A7" stroke-opacity="1.00" stroke-width="0.3"><path d="
M 383.00 728.00 
C 380.86 714.43 387.21 696.14 379.75 684.25 C 372.29 672.36 354.94 677.32 345.00 681.00
C 345.73 683.61 346.35 686.13 346.00 689.00
C 352.42 685.64 370.63 682.05 372.07 691.93 C 373.51 701.81 354.67 695.87 347.75 701.75 C 340.82 707.62 337.15 720.36 346.31 726.69 C 355.46 733.03 366.26 728.69 373.00 722.00
C 372.11 728.55 377.99 728.58 383.00 728.00
M 373.00 704.00 
C 376.25 712.88 361.75 729.22 352.77 719.23 C 343.79 709.23 365.05 701.00 373.00 704.00 Z"/>
</g>
<g fill="None" fill-opacity="0.0" stroke="#00C9A7" stroke-opacity="1.00" stroke-width="0.3"><path d="
M 434.00 685.00 
C 418.54 667.35 395.57 681.70 394.00 702.00 C 392.43 722.30 419.01 739.17 432.00 720.00
C 439.26 738.51 414.91 746.33 402.00 737.00
C 397.46 751.28 417.60 751.23 428.31 747.31 C 439.01 743.38 444.45 732.27 443.00 720.00 C 441.55 707.73 444.09 690.70 443.00 678.00
C 437.36 677.11 431.79 677.92 434.00 685.00
M 424.00 686.00 
C 441.44 690.06 433.15 726.23 414.93 719.07 C 396.71 711.91 404.73 681.52 424.00 686.00 Z"/>
</g>
<g fill="None" fill-opacity="0.0" stroke="#00C9A7" stroke-opacity="1.00" stroke-width="0.3"><path d="
M 459.00 678.00 
C 459.00 694.67 459.00 711.33 459.00 728.00
C 462.33 728.00 465.67 728.00 469.00 728.00
C 471.59 716.44 464.78 702.38 470.75 691.75 C 476.71 681.12 489.84 685.56 492.00 696.00
C 494.03 705.82 492.56 717.45 493.00 728.00
C 496.33 728.00 499.67 728.00 503.00 728.00
C 501.25 714.41 506.63 696.21 499.75 684.25 C 492.88 672.29 474.94 675.77 468.00 685.00
C 471.20 679.42 463.24 675.03 459.00 678.00 Z"/>
</g>
<g fill="None" fill-opacity="0.0" stroke="#00C9A7" stroke-opacity="1.00" stroke-width="0.3"><path d="
M 545.00 677.00 
C 510.58 671.41 503.77 723.03 535.93 729.07 C 568.09 735.11 575.49 681.95 545.00 677.00
M 545.00 686.00 
C 562.68 690.38 553.45 728.28 534.93 720.07 C 516.40 711.87 524.65 680.96 545.00 686.00 Z"/>
</g>
<g fill="None" fill-opacity="0.0" stroke="#00C9A7" stroke-opacity="1.00" stroke-width="0.3"><path d="
M 667.00 706.00 
C 668.82 693.73 662.75 679.73 650.00 677.00 C 637.25 674.27 626.58 684.03 622.98 694.98 C 619.37 705.92 624.15 721.64 634.31 726.69 C 644.47 731.75 668.02 731.81 663.00 717.00
C 652.78 724.17 631.44 722.18 633.00 706.00
C 644.33 706.00 655.67 706.00 667.00 706.00
M 657.00 697.00 
C 649.49 699.25 640.92 697.39 633.00 698.00
C 632.08 682.58 657.29 680.73 657.00 697.00 Z"/>
</g>
<g fill="None" fill-opacity="0.0" stroke="#00C9A7" stroke-opacity="1.00" stroke-width="0.3"><path d="
M 713.00 696.00 
C 715.03 705.82 713.56 717.44 714.00 728.00
C 714.68 728.47 722.32 728.47 723.00 728.00
C 722.19 716.07 724.08 703.90 723.00 692.00
C 722.29 674.74 697.95 672.49 689.00 685.00
C 691.88 675.40 677.62 675.89 679.00 684.00 C 680.38 692.12 678.28 698.26 679.00 706.00 C 679.72 713.74 678.46 720.36 679.00 728.00
C 682.67 728.00 686.33 728.00 690.00 728.00
C 692.57 716.45 685.84 702.35 691.70 691.70 C 697.55 681.04 710.89 685.82 713.00 696.00 Z"/>
</g>
<g fill="None" fill-opacity="0.0" stroke="#00C9A7" stroke-opacity="1.00" stroke-width="0.3"><path d="
M 770.00 680.00 
C 761.42 676.45 750.59 675.38 742.25 680.25 C 733.91 685.12 735.28 696.89 740.77 702.23 C 746.26 707.57 762.14 706.10 760.97 715.97 C 759.80 725.84 741.80 719.49 737.00 717.00
C 731.49 729.94 749.64 730.60 758.93 728.93 C 768.22 727.25 774.87 717.07 770.30 707.70 C 765.74 698.32 753.80 702.71 747.75 694.25 C 741.71 685.78 763.04 683.24 769.00 688.00
C 768.37 685.08 770.03 682.74 770.00 680.00 Z"/>
</g>
<g fill="None" fill-opacity="0.0" stroke="#00C9A7" stroke-opacity="1.00" stroke-width="0.3"><path d="
M 328.00 678.00 
C 324.67 678.00 321.33 678.00 318.00 678.00
C 318.00 694.67 318.00 711.33 318.00 728.00
C 321.33 728.00 324.67 728.00 328.00 728.00
C 328.00 711.33 328.00 694.67 328.00 678.00 Z"/>
</g>
<g fill="None" fill-opacity="0.0" stroke="none" stroke-opacity="1.00" stroke-width="0.3"><path d="
M 459.00 728.00 
C 459.00 711.33 459.00 694.67 459.00 678.00
C 455.83 680.22 458.56 691.01 458.00 695.00 C 457.44 698.99 457.62 708.06 458.00 712.00 C 458.38 715.94 455.96 725.87 459.00 728.00 Z"/>
</g>
<g fill="None" fill-opacity="0.0" stroke="none" stroke-opacity="1.00" stroke-width="0.3"><path d="
M 657.00 697.00 
C 657.29 680.73 632.08 682.58 633.00 698.00
C 640.92 697.39 649.49 699.25 657.00 697.00 Z"/>
</g>
<g fill="None" fill-opacity="0.0" stroke="none" stroke-opacity="1.00" stroke-width="0.3"><path d="
M 424.00 686.00 
C 404.73 681.52 396.71 711.91 414.93 719.07 C 433.15 726.23 441.44 690.06 424.00 686.00 Z"/>
</g>
<g fill="None" fill-opacity="0.0" stroke="none" stroke-opacity="1.00" stroke-width="0.3"><path d="
M 545.00 686.00 
C 524.65 680.96 516.40 711.87 534.93 720.07 C 553.45 728.28 562.68 690.38 545.00 686.00 Z"/>
</g>
<g fill="None" fill-opacity="0.0" stroke="none" stroke-opacity="1.00" stroke-width="0.3"><path d="
M 723.00 728.00 
C 726.67 725.43 722.95 714.58 724.00 710.00 C 725.05 705.42 723.87 696.18 723.00 692.00
C 724.08 703.90 722.19 716.07 723.00 728.00 Z"/>
</g>
<g fill="None" fill-opacity="0.0" stroke="none" stroke-opacity="1.00" stroke-width="0.3"><path d="
M 493.00 728.00 
C 492.56 717.45 494.03 705.82 492.00 696.00
C 492.42 700.65 491.19 708.71 492.00 713.00 C 492.81 717.29 489.67 725.67 493.00 728.00 Z"/>
</g>
<g fill="None" fill-opacity="0.0" stroke="none" stroke-opacity="1.00" stroke-width="0.3"><path d="
M 714.00 728.00 
C 713.56 717.44 715.03 705.82 713.00 696.00
C 713.42 700.65 712.19 708.72 713.00 713.00 C 713.81 717.29 710.67 725.67 714.00 728.00 Z"/>
</g>
<g fill="None" fill-opacity="0.0" stroke="none" stroke-opacity="1.00" stroke-width="0.3"><path d="
M 373.00 704.00 
C 365.05 701.00 343.79 709.23 352.77 719.23 C 361.75 729.22 376.25 712.88 373.00 704.00 Z"/>
</g>
<g fill="#00C9A7" fill-opacity="1.00" stroke="None">
<path d="
M 0.00 1.00 
C 341.34 1.00 682.67 1.00 1024.00 1.00
L 1024.00 0.00
L 0.00 0.00
L 0.00 1.00 Z"/>
</g>
<g fill="none" fill-opacity="1.00" stroke="None">
<path d="
M 0.00 2.00 
C 341.34 2.00 682.67 2.00 1024.00 2.00
L 1024.00 1.00
C 682.67 1.00 341.34 1.00 0.00 1.00
L 0.00 2.00 Z"/>
</g>
<g fill="none" fill-opacity="1.00" stroke="None">
<path d="
M 0.00 1024.00 
L 1024.00 1024.00
L 1024.00 2.00
C 682.67 2.00 341.34 2.00 0.00 2.00
L 0.00 1024.00
M 528.00 271.00 
C 528.00 279.33 528.00 287.67 528.00 296.00
C 532.18 298.93 540.79 291.75 540.00 301.00 C 539.21 310.26 540.14 308.49 540.00 319.00 C 539.86 329.51 540.10 343.49 540.00 354.00 C 539.90 364.51 540.07 362.61 540.00 372.00
C 536.67 372.00 533.33 372.00 530.00 372.00
C 530.00 376.33 530.00 380.67 530.00 385.00
C 518.00 385.00 506.00 385.00 494.00 385.00
C 495.35 377.15 494.00 368.89 484.00 372.00
C 484.00 362.33 484.00 352.67 484.00 343.00
C 485.00 343.00 486.00 343.00 487.00 343.00
C 491.17 340.92 497.10 342.48 502.00 342.00
C 504.69 350.36 496.73 349.31 491.00 349.00
C 491.00 354.67 491.00 360.33 491.00 366.00
C 495.70 369.29 506.20 364.28 512.00 366.00 C 517.80 367.72 526.90 364.71 533.00 366.00
C 533.00 345.00 533.00 324.00 533.00 303.00
C 519.00 303.00 505.00 303.00 491.00 303.00
C 491.00 306.67 491.00 310.33 491.00 314.00
C 495.41 313.39 505.52 313.37 501.00 320.00
C 498.99 322.01 486.95 321.95 485.00 320.00
C 480.47 315.47 486.41 309.47 484.00 303.00 C 481.59 296.53 490.41 294.16 496.00 296.00
C 496.00 287.67 496.00 279.33 496.00 271.00
C 491.27 272.29 488.80 269.72 490.00 265.00
C 504.67 265.00 519.33 265.00 534.00 265.00
C 535.29 269.73 532.72 272.20 528.00 271.00
M 485.00 334.00 
C 483.50 332.50 484.11 330.16 484.00 328.00
C 489.67 328.00 495.33 328.00 501.00 328.00
C 504.46 330.38 500.94 336.56 497.00 335.00 C 493.05 333.43 488.04 337.04 485.00 334.00
M 652.00 446.00 
C 652.46 450.72 652.45 456.35 652.00 461.00
C 652.00 509.72 617.00 556.74 573.00 576.00
C 572.34 564.90 587.11 563.08 594.25 556.25 C 601.38 549.42 609.78 544.42 616.25 536.25 C 622.71 528.08 627.42 520.80 632.31 511.31 C 637.19 501.81 641.15 491.18 643.33 480.33 C 645.51 469.48 647.16 453.51 646.00 442.00 C 644.84 430.49 641.27 418.92 637.23 408.77 C 633.19 398.62 628.47 391.09 622.70 382.30 C 616.92 373.51 609.03 368.50 601.75 361.25 C 594.48 354.00 585.15 350.88 576.77 345.23 C 568.40 339.58 550.35 341.62 550.00 330.00
C 604.34 339.49 650.61 390.29 652.00 446.00
M 623.00 478.00 
C 619.86 467.54 621.61 454.22 620.67 443.33 C 619.73 432.44 616.39 422.29 612.08 412.92 C 607.76 403.56 602.72 397.49 596.25 389.75 C 589.78 382.02 581.82 378.73 574.30 372.70 C 566.79 366.66 550.32 367.49 550.00 357.00
C 602.70 365.80 640.85 427.32 623.00 478.00
M 568.00 558.00 
C 568.00 566.33 568.00 574.67 568.00 583.00
C 564.33 583.00 560.67 583.00 557.00 583.00
C 556.89 556.85 557.15 522.31 557.00 497.00 C 556.85 471.69 536.46 454.00 513.00 454.00 C 489.54 454.00 468.17 470.27 468.00 496.00 C 467.84 521.74 468.12 556.45 468.00 583.00
C 446.00 583.00 424.00 583.00 402.00 583.00
C 403.00 539.50 395.03 482.12 417.92 445.92 C 440.82 409.73 478.79 392.13 519.00 394.00 C 559.21 395.87 592.15 421.37 608.77 457.23 C 625.39 493.09 606.51 544.35 568.00 558.00
M 544.00 584.00 
C 534.23 584.50 528.13 583.34 518.00 584.00 C 507.87 584.66 503.48 582.73 492.00 584.00 C 480.52 585.27 483.13 578.40 482.00 568.00 C 480.87 557.60 485.08 552.97 495.00 555.00 C 504.92 557.03 512.85 553.13 521.00 555.00 C 529.15 556.87 540.78 550.70 543.97 558.03 C 547.16 565.36 541.64 576.34 544.00 584.00
M 476.00 593.00 
C 476.00 598.58 474.17 603.69 473.00 609.00
C 455.03 613.09 418.31 597.82 416.00 624.00
C 479.33 624.00 542.67 624.00 606.00 624.00
C 606.35 615.48 600.90 607.73 591.00 609.00 C 581.10 610.28 570.54 607.20 560.00 609.00 C 549.46 610.80 544.20 603.77 545.00 593.00
C 552.14 590.74 552.36 598.15 553.00 603.00
C 566.82 603.54 582.35 602.29 596.00 603.00 C 609.65 603.71 613.55 618.74 612.00 630.00
C 544.33 630.00 476.67 630.00 409.00 630.00
C 409.42 623.20 407.85 613.65 413.77 608.77 C 419.69 603.89 425.39 601.86 434.00 603.00 C 442.61 604.14 450.34 600.89 460.00 603.00 C 469.66 605.11 467.47 592.33 476.00 593.00
M 327.00 657.00 
C 333.33 660.18 326.61 672.60 319.98 668.02 C 313.34 663.44 320.01 653.49 327.00 657.00
M 272.00 659.00 
C 296.36 659.00 310.45 680.04 304.02 704.02 C 297.60 728.01 269.95 730.75 248.00 728.00
C 248.00 705.00 248.00 682.00 248.00 659.00
C 250.08 656.02 256.64 659.02 260.00 658.00 C 263.36 656.98 269.27 658.74 272.00 659.00
M 587.00 659.00 
C 587.00 679.00 587.00 699.00 587.00 719.00
C 596.90 721.92 620.36 711.46 618.00 728.00
C 604.33 728.00 590.67 728.00 577.00 728.00
C 577.00 705.00 577.00 682.00 577.00 659.00
C 580.33 659.00 583.67 659.00 587.00 659.00
M 383.00 728.00 
C 377.99 728.58 372.11 728.55 373.00 722.00
C 366.26 728.69 355.46 733.03 346.31 726.69 C 337.15 720.36 340.82 707.62 347.75 701.75 C 354.67 695.87 373.51 701.81 372.07 691.93 C 370.63 682.05 352.42 685.64 346.00 689.00
C 346.35 686.13 345.73 683.61 345.00 681.00
C 354.94 677.32 372.29 672.36 379.75 684.25 C 387.21 696.14 380.86 714.43 383.00 728.00
M 434.00 685.00 
C 431.79 677.92 437.36 677.11 443.00 678.00
C 444.09 690.70 441.55 707.73 443.00 720.00 C 444.45 732.27 439.01 743.38 428.31 747.31 C 417.60 751.23 397.46 751.28 402.00 737.00
C 414.91 746.33 439.26 738.51 432.00 720.00
C 419.01 739.17 392.43 722.30 394.00 702.00 C 395.57 681.70 418.54 667.35 434.00 685.00
M 493.00 728.00 
C 489.67 725.67 492.81 717.29 492.00 713.00 C 491.19 708.71 492.42 700.65 492.00 696.00
C 489.84 685.56 476.71 681.12 470.75 691.75 C 464.78 702.38 471.59 716.44 469.00 728.00
C 465.67 728.00 462.33 728.00 459.00 728.00
C 455.96 725.87 458.38 715.94 458.00 712.00 C 457.62 708.06 457.44 698.99 458.00 695.00 C 458.56 691.01 455.83 680.22 459.00 678.00
C 463.24 675.03 471.20 679.42 468.00 685.00
C 474.94 675.77 492.88 672.29 499.75 684.25 C 506.63 696.21 501.25 714.41 503.00 728.00
C 499.67 728.00 496.33 728.00 493.00 728.00
M 545.00 677.00 
C 575.49 681.95 568.09 735.11 535.93 729.07 C 503.77 723.03 510.58 671.41 545.00 677.00
M 667.00 706.00 
C 655.67 706.00 644.33 706.00 633.00 706.00
C 631.44 722.18 652.78 724.17 663.00 717.00
C 668.02 731.81 644.47 731.75 634.31 726.69 C 624.15 721.64 619.37 705.92 622.98 694.98 C 626.58 684.03 637.25 674.27 650.00 677.00 C 662.75 679.73 668.82 693.73 667.00 706.00
M 723.00 692.00 
C 723.87 696.18 725.05 705.42 724.00 710.00 C 722.95 714.58 726.67 725.43 723.00 728.00
C 722.32 728.47 714.68 728.47 714.00 728.00
C 710.67 725.67 713.81 717.29 713.00 713.00 C 712.19 708.72 713.42 700.65 713.00 696.00
C 710.89 685.82 697.55 681.04 691.70 691.70 C 685.84 702.35 692.57 716.45 690.00 728.00
C 686.33 728.00 682.67 728.00 679.00 728.00
C 678.46 720.36 679.72 713.74 679.00 706.00 C 678.28 698.26 680.38 692.12 679.00 684.00 C 677.62 675.89 691.88 675.40 689.00 685.00
C 697.95 672.49 722.29 674.74 723.00 692.00
M 770.00 680.00 
C 770.03 682.74 768.37 685.08 769.00 688.00
C 763.04 683.24 741.71 685.78 747.75 694.25 C 753.80 702.71 765.74 698.32 770.30 707.70 C 774.87 717.07 768.22 727.25 758.93 728.93 C 749.64 730.60 731.49 729.94 737.00 717.00
C 741.80 719.49 759.80 725.84 760.97 715.97 C 762.14 706.10 746.26 707.57 740.77 702.23 C 735.28 696.89 733.91 685.12 742.25 680.25 C 750.59 675.38 761.42 676.45 770.00 680.00
M 328.00 678.00 
C 328.00 694.67 328.00 711.33 328.00 728.00
C 324.67 728.00 321.33 728.00 318.00 728.00
C 318.00 711.33 318.00 694.67 318.00 678.00
C 321.33 678.00 324.67 678.00 328.00 678.00 Z"/>
</g>
<g fill="#00C9A7" fill-opacity="1.00" stroke="None">
<path d="
M 485.00 320.00 
C 486.22 320.86 499.76 320.84 501.00 320.00
C 505.52 313.37 495.41 313.39 491.00 314.00
C 491.00 310.33 491.00 306.67 491.00 303.00
C 505.00 303.00 519.00 303.00 533.00 303.00
C 533.00 324.00 533.00 345.00 533.00 366.00
C 526.90 364.71 517.80 367.72 512.00 366.00 C 506.20 364.28 495.70 369.29 491.00 366.00
C 487.39 363.47 491.34 356.46 490.00 352.00 C 488.66 347.54 497.79 347.25 501.00 348.00
C 502.89 339.60 491.80 344.13 487.00 343.00
C 486.00 343.00 485.00 343.00 484.00 343.00
C 484.00 352.67 484.00 362.33 484.00 372.00
C 494.00 368.89 495.35 377.15 494.00 385.00
C 506.00 385.00 518.00 385.00 530.00 385.00
C 530.00 380.67 530.00 376.33 530.00 372.00
C 533.33 372.00 536.67 372.00 540.00 372.00
C 540.07 362.61 539.90 364.51 540.00 354.00 C 540.10 343.49 539.86 329.51 540.00 319.00 C 540.14 308.49 539.21 310.26 540.00 301.00 C 540.79 291.75 532.18 298.93 528.00 296.00
C 525.69 294.38 526.96 286.96 527.00 284.00 C 527.04 281.04 525.74 272.99 528.00 271.00
C 532.72 272.20 535.29 269.73 534.00 265.00
C 519.33 265.00 504.67 265.00 490.00 265.00
C 488.80 269.72 491.27 272.29 496.00 271.00
C 496.00 279.33 496.00 287.67 496.00 296.00
C 490.41 294.16 481.59 296.53 484.00 303.00 C 486.41 309.47 480.47 315.47 485.00 320.00
M 521.00 271.00 
C 521.00 279.33 521.00 287.67 521.00 296.00
C 515.00 296.00 509.00 296.00 503.00 296.00
C 503.00 287.67 503.00 279.33 503.00 271.00
C 509.00 271.00 515.00 271.00 521.00 271.00
M 524.00 372.00 
C 526.18 384.87 507.75 376.72 500.00 379.00
C 497.82 366.13 516.25 374.28 524.00 372.00 Z"/>
</g>
<g fill="none" fill-opacity="1.00" stroke="None">
<path d="
M 521.00 271.00 
C 515.00 271.00 509.00 271.00 503.00 271.00
C 503.00 279.33 503.00 287.67 503.00 296.00
C 509.00 296.00 515.00 296.00 521.00 296.00
C 521.00 287.67 521.00 279.33 521.00 271.00 Z"/>
</g>
<g fill="none" fill-opacity="1.00" stroke="None">
<path d="
M 528.00 296.00 
C 528.00 287.67 528.00 279.33 528.00 271.00
C 525.74 272.99 527.04 281.04 527.00 284.00 C 526.96 286.96 525.69 294.38 528.00 296.00 Z"/>
</g>
<g fill="none" fill-opacity="1.00" stroke="None">
<path d="
M 501.00 320.00 
C 499.76 320.84 486.22 320.86 485.00 320.00
C 486.95 321.95 498.99 322.01 501.00 320.00 Z"/>
</g>
<g fill="#00C9A7" fill-opacity="1.00" stroke="None">
<path d="
M 485.00 334.00 
C 488.61 336.49 496.96 332.13 501.00 334.00
C 501.00 332.00 501.00 330.00 501.00 328.00
C 495.33 328.00 489.67 328.00 484.00 328.00
C 484.11 330.16 483.50 332.50 485.00 334.00 Z"/>
</g>
<g fill="none" fill-opacity="1.00" stroke="None">
<path d="
M 485.00 334.00 
C 488.04 337.04 493.05 333.43 497.00 335.00 C 500.94 336.56 504.46 330.38 501.00 328.00
C 501.00 330.00 501.00 332.00 501.00 334.00
C 496.96 332.13 488.61 336.49 485.00 334.00 Z"/>
</g>
<g fill="#00C9A7" fill-opacity="1.00" stroke="None">
<path d="
M 652.00 461.00 
C 652.00 456.00 652.00 451.00 652.00 446.00
C 650.61 390.29 604.34 339.49 550.00 330.00
C 550.35 341.62 568.40 339.58 576.77 345.23 C 585.15 350.88 594.48 354.00 601.75 361.25 C 609.03 368.50 616.92 373.51 622.70 382.30 C 628.47 391.09 633.19 398.62 637.23 408.77 C 641.27 418.92 644.84 430.49 646.00 442.00 C 647.16 453.51 645.51 469.48 643.33 480.33 C 641.15 491.18 637.19 501.81 632.31 511.31 C 627.42 520.80 622.71 528.08 616.25 536.25 C 609.78 544.42 601.38 549.42 594.25 556.25 C 587.11 563.08 572.34 564.90 573.00 576.00
C 617.00 556.74 652.00 509.72 652.00 461.00 Z"/>
</g>
<g fill="none" fill-opacity="1.00" stroke="None">
<path d="
M 487.00 343.00 
C 491.80 344.13 502.89 339.60 501.00 348.00
C 497.79 347.25 488.66 347.54 490.00 352.00 C 491.34 356.46 487.39 363.47 491.00 366.00
C 491.00 360.33 491.00 354.67 491.00 349.00
C 496.73 349.31 504.69 350.36 502.00 342.00
C 497.10 342.48 491.17 340.92 487.00 343.00 Z"/>
</g>
<g fill="#00C9A7" fill-opacity="1.00" stroke="None">
<path d="
M 623.00 478.00 
C 640.85 427.32 602.70 365.80 550.00 357.00
C 550.32 367.49 566.79 366.66 574.30 372.70 C 581.82 378.73 589.78 382.02 596.25 389.75 C 602.72 397.49 607.76 403.56 612.08 412.92 C 616.39 422.29 619.73 432.44 620.67 443.33 C 621.61 454.22 619.86 467.54 623.00 478.00 Z"/>
</g>
<g fill="none" fill-opacity="1.00" stroke="None">
<path d="
M 524.00 372.00 
C 516.25 374.28 497.82 366.13 500.00 379.00
C 507.75 376.72 526.18 384.87 524.00 372.00 Z"/>
</g>
<g fill="#00C9A7" fill-opacity="1.00" stroke="None">
<path d="
M 568.00 558.00 
C 606.51 544.35 625.39 493.09 608.77 457.23 C 592.15 421.37 559.21 395.87 519.00 394.00 C 478.79 392.13 440.82 409.73 417.92 445.92 C 395.03 482.12 403.00 539.50 402.00 583.00
C 424.00 583.00 446.00 583.00 468.00 583.00
C 468.12 556.45 467.84 521.74 468.00 496.00 C 468.17 470.27 489.54 454.00 513.00 454.00 C 536.46 454.00 556.85 471.69 557.00 497.00 C 557.15 522.31 556.89 556.85 557.00 583.00
C 560.67 583.00 564.33 583.00 568.00 583.00
C 568.00 574.67 568.00 566.33 568.00 558.00
M 435.00 441.00 
C 438.21 436.50 442.88 432.52 447.00 429.00
C 484.74 396.75 539.78 398.81 576.25 430.75 C 612.71 462.69 613.31 522.20 568.00 546.00
C 569.32 515.65 572.49 471.82 545.75 453.25 C 519.01 434.67 485.03 438.93 466.25 466.25 C 447.46 493.57 461.31 539.68 457.00 572.00
C 442.33 572.00 427.67 572.00 413.00 572.00
C 414.93 527.08 403.77 476.57 435.00 441.00 Z"/>
</g>
<g fill="none" fill-opacity="1.00" stroke="None">
<path d="
M 447.00 429.00 
C 443.24 432.76 438.34 437.02 435.00 441.00
C 403.77 476.57 414.93 527.08 413.00 572.00
C 427.67 572.00 442.33 572.00 457.00 572.00
C 461.31 539.68 447.46 493.57 466.25 466.25 C 485.03 438.93 519.01 434.67 545.75 453.25 C 572.49 471.82 569.32 515.65 568.00 546.00
C 613.31 522.20 612.71 462.69 576.25 430.75 C 539.78 398.81 484.74 396.75 447.00 429.00
M 515.00 418.00 
C 522.79 420.21 518.08 434.59 510.00 431.00 C 501.92 427.41 507.00 415.73 515.00 418.00
M 490.00 424.00 
C 496.13 427.31 489.37 440.75 482.32 435.68 C 475.28 430.61 482.22 419.80 490.00 424.00
M 542.00 424.00 
C 548.87 426.57 545.19 439.27 537.33 436.67 C 529.46 434.06 533.26 420.73 542.00 424.00
M 443.00 463.00 
C 451.55 465.43 446.86 480.55 438.00 477.00 C 429.14 473.45 434.25 460.51 443.00 463.00 Z"/>
</g>
<g fill="#00C9A7" fill-opacity="1.00" stroke="None">
<path d="
M 515.00 418.00 
C 507.00 415.73 501.92 427.41 510.00 431.00 C 518.08 434.59 522.79 420.21 515.00 418.00 Z"/>
</g>
<g fill="#00C9A7" fill-opacity="1.00" stroke="None">
<path d="
M 490.00 424.00 
C 482.22 419.80 475.28 430.61 482.32 435.68 C 489.37 440.75 496.13 427.31 490.00 424.00 Z"/>
</g>
<g fill="#00C9A7" fill-opacity="1.00" stroke="None">
<path d="
M 542.00 424.00 
C 533.26 420.73 529.46 434.06 537.33 436.67 C 545.19 439.27 548.87 426.57 542.00 424.00 Z"/>
</g>
<g fill="none" fill-opacity="1.00" stroke="None">
<path d="
M 435.00 441.00 
C 438.34 437.02 443.24 432.76 447.00 429.00
C 442.88 432.52 438.21 436.50 435.00 441.00 Z"/>
</g>
<g fill="none" fill-opacity="1.00" stroke="None">
<path d="
M 652.00 461.00 
C 652.45 456.35 652.46 450.72 652.00 446.00
C 652.00 451.00 652.00 456.00 652.00 461.00 Z"/>
</g>
<g fill="#00C9A7" fill-opacity="1.00" stroke="None">
<path d="
M 443.00 463.00 
C 434.25 460.51 429.14 473.45 438.00 477.00 C 446.86 480.55 451.55 465.43 443.00 463.00 Z"/>
</g>
<g fill="#00C9A7" fill-opacity="1.00" stroke="None">
<path d="
M 544.00 584.00 
C 541.64 576.34 547.16 565.36 543.97 558.03 C 540.78 550.70 529.15 556.87 521.00 555.00 C 512.85 553.13 504.92 557.03 495.00 555.00 C 485.08 552.97 480.87 557.60 482.00 568.00 C 483.13 578.40 480.52 585.27 492.00 584.00 C 503.48 582.73 507.87 584.66 518.00 584.00 C 528.13 583.34 534.23 584.50 544.00 584.00
M 537.00 562.00 
C 537.00 567.00 537.00 572.00 537.00 577.00
C 521.00 577.00 505.00 577.00 489.00 577.00
C 489.00 572.00 489.00 567.00 489.00 562.00
C 505.00 562.00 521.00 562.00 537.00 562.00 Z"/>
</g>
<g fill="none" fill-opacity="1.00" stroke="None">
<path d="
M 537.00 562.00 
C 521.00 562.00 505.00 562.00 489.00 562.00
C 489.00 567.00 489.00 572.00 489.00 577.00
C 505.00 577.00 521.00 577.00 537.00 577.00
C 537.00 572.00 537.00 567.00 537.00 562.00 Z"/>
</g>
<g fill="#00C9A7" fill-opacity="1.00" stroke="None">
<path d="
M 476.00 593.00 
C 467.47 592.33 469.66 605.11 460.00 603.00 C 450.34 600.89 442.61 604.14 434.00 603.00 C 425.39 601.86 419.69 603.89 413.77 608.77 C 407.85 613.65 409.42 623.20 409.00 630.00
C 476.67 630.00 544.33 630.00 612.00 630.00
C 613.55 618.74 609.65 603.71 596.00 603.00 C 582.35 602.29 566.82 603.54 553.00 603.00
C 552.36 598.15 552.14 590.74 545.00 593.00
C 544.20 603.77 549.46 610.80 560.00 609.00 C 570.54 607.20 581.10 610.28 591.00 609.00 C 600.90 607.73 606.35 615.48 606.00 624.00
C 542.67 624.00 479.33 624.00 416.00 624.00
C 418.31 597.82 455.03 613.09 473.00 609.00
C 474.17 603.69 476.00 598.58 476.00 593.00 Z"/>
</g>
<g fill="#00C9A7" fill-opacity="1.00" stroke="None">
<path d="
M 327.00 657.00 
C 320.01 653.49 313.34 663.44 319.98 668.02 C 326.61 672.60 333.33 660.18 327.00 657.00 Z"/>
</g>
<g fill="none" fill-opacity="1.00" stroke="None">
<path d="
M 248.00 659.00 
C 256.00 659.00 264.00 659.00 272.00 659.00
C 269.27 658.74 263.36 656.98 260.00 658.00 C 256.64 659.02 250.08 656.02 248.00 659.00 Z"/>
</g>
<g fill="#00C9A7" fill-opacity="1.00" stroke="None">
<path d="
M 272.00 659.00 
C 264.00 659.00 256.00 659.00 248.00 659.00
C 248.00 682.00 248.00 705.00 248.00 728.00
C 269.95 730.75 297.60 728.01 304.02 704.02 C 310.45 680.04 296.36 659.00 272.00 659.00
M 259.00 719.00 
C 255.93 716.85 258.34 707.09 258.00 703.00 C 257.66 698.91 257.48 689.13 258.00 685.00 C 258.52 680.87 255.80 670.24 259.00 668.00
C 263.07 665.15 273.37 668.84 278.07 668.93 C 282.78 669.02 286.81 673.26 289.92 677.08 C 293.02 680.90 294.01 687.84 294.00 693.00 C 293.99 698.16 293.39 705.52 290.23 709.23 C 287.07 712.94 283.47 717.32 278.92 717.92 C 274.38 718.53 262.94 721.76 259.00 719.00 Z"/>
</g>
<g fill="#00C9A7" fill-opacity="1.00" stroke="None">
<path d="
M 587.00 659.00 
C 583.67 659.00 580.33 659.00 577.00 659.00
C 577.00 682.00 577.00 705.00 577.00 728.00
C 590.67 728.00 604.33 728.00 618.00 728.00
C 620.36 711.46 596.90 721.92 587.00 719.00
C 587.00 699.00 587.00 679.00 587.00 659.00 Z"/>
</g>
<g fill="none" fill-opacity="1.00" stroke="None">
<path d="
M 259.00 719.00 
C 259.00 702.00 259.00 685.00 259.00 668.00
C 255.80 670.24 258.52 680.87 258.00 685.00 C 257.48 689.13 257.66 698.91 258.00 703.00 C 258.34 707.09 255.93 716.85 259.00 719.00 Z"/>
</g>
<g fill="none" fill-opacity="1.00" stroke="None">
<path d="
M 259.00 719.00 
C 262.94 721.76 274.38 718.53 278.92 717.92 C 283.47 717.32 287.07 712.94 290.23 709.23 C 293.39 705.52 293.99 698.16 294.00 693.00 C 294.01 687.84 293.02 680.90 289.92 677.08 C 286.81 673.26 282.78 669.02 278.07 668.93 C 273.37 668.84 263.07 665.15 259.00 668.00
C 259.00 685.00 259.00 702.00 259.00 719.00 Z"/>
</g>
<g fill="#00C9A7" fill-opacity="1.00" stroke="None">
<path d="
M 383.00 728.00 
C 380.86 714.43 387.21 696.14 379.75 684.25 C 372.29 672.36 354.94 677.32 345.00 681.00
C 345.73 683.61 346.35 686.13 346.00 689.00
C 352.42 685.64 370.63 682.05 372.07 691.93 C 373.51 701.81 354.67 695.87 347.75 701.75 C 340.82 707.62 337.15 720.36 346.31 726.69 C 355.46 733.03 366.26 728.69 373.00 722.00
C 372.11 728.55 377.99 728.58 383.00 728.00
M 373.00 704.00 
C 376.25 712.88 361.75 729.22 352.77 719.23 C 343.79 709.23 365.05 701.00 373.00 704.00 Z"/>
</g>
<g fill="#00C9A7" fill-opacity="1.00" stroke="None">
<path d="
M 434.00 685.00 
C 418.54 667.35 395.57 681.70 394.00 702.00 C 392.43 722.30 419.01 739.17 432.00 720.00
C 439.26 738.51 414.91 746.33 402.00 737.00
C 397.46 751.28 417.60 751.23 428.31 747.31 C 439.01 743.38 444.45 732.27 443.00 720.00 C 441.55 707.73 444.09 690.70 443.00 678.00
C 437.36 677.11 431.79 677.92 434.00 685.00
M 424.00 686.00 
C 441.44 690.06 433.15 726.23 414.93 719.07 C 396.71 711.91 404.73 681.52 424.00 686.00 Z"/>
</g>
<g fill="#00C9A7" fill-opacity="1.00" stroke="None">
<path d="
M 459.00 678.00 
C 459.00 694.67 459.00 711.33 459.00 728.00
C 462.33 728.00 465.67 728.00 469.00 728.00
C 471.59 716.44 464.78 702.38 470.75 691.75 C 476.71 681.12 489.84 685.56 492.00 696.00
C 494.03 705.82 492.56 717.45 493.00 728.00
C 496.33 728.00 499.67 728.00 503.00 728.00
C 501.25 714.41 506.63 696.21 499.75 684.25 C 492.88 672.29 474.94 675.77 468.00 685.00
C 471.20 679.42 463.24 675.03 459.00 678.00 Z"/>
</g>
<g fill="#00C9A7" fill-opacity="1.00" stroke="None">
<path d="
M 545.00 677.00 
C 510.58 671.41 503.77 723.03 535.93 729.07 C 568.09 735.11 575.49 681.95 545.00 677.00
M 545.00 686.00 
C 562.68 690.38 553.45 728.28 534.93 720.07 C 516.40 711.87 524.65 680.96 545.00 686.00 Z"/>
</g>
<g fill="#00C9A7" fill-opacity="1.00" stroke="None">
<path d="
M 667.00 706.00 
C 668.82 693.73 662.75 679.73 650.00 677.00 C 637.25 674.27 626.58 684.03 622.98 694.98 C 619.37 705.92 624.15 721.64 634.31 726.69 C 644.47 731.75 668.02 731.81 663.00 717.00
C 652.78 724.17 631.44 722.18 633.00 706.00
C 644.33 706.00 655.67 706.00 667.00 706.00
M 657.00 697.00 
C 649.49 699.25 640.92 697.39 633.00 698.00
C 632.08 682.58 657.29 680.73 657.00 697.00 Z"/>
</g>
<g fill="#00C9A7" fill-opacity="1.00" stroke="None">
<path d="
M 713.00 696.00 
C 715.03 705.82 713.56 717.44 714.00 728.00
C 714.68 728.47 722.32 728.47 723.00 728.00
C 722.19 716.07 724.08 703.90 723.00 692.00
C 722.29 674.74 697.95 672.49 689.00 685.00
C 691.88 675.40 677.62 675.89 679.00 684.00 C 680.38 692.12 678.28 698.26 679.00 706.00 C 679.72 713.74 678.46 720.36 679.00 728.00
C 682.67 728.00 686.33 728.00 690.00 728.00
C 692.57 716.45 685.84 702.35 691.70 691.70 C 697.55 681.04 710.89 685.82 713.00 696.00 Z"/>
</g>
<g fill="#00C9A7" fill-opacity="1.00" stroke="None">
<path d="
M 770.00 680.00 
C 761.42 676.45 750.59 675.38 742.25 680.25 C 733.91 685.12 735.28 696.89 740.77 702.23 C 746.26 707.57 762.14 706.10 760.97 715.97 C 759.80 725.84 741.80 719.49 737.00 717.00
C 731.49 729.94 749.64 730.60 758.93 728.93 C 768.22 727.25 774.87 717.07 770.30 707.70 C 765.74 698.32 753.80 702.71 747.75 694.25 C 741.71 685.78 763.04 683.24 769.00 688.00
C 768.37 685.08 770.03 682.74 770.00 680.00 Z"/>
</g>
<g fill="#00C9A7" fill-opacity="1.00" stroke="None">
<path d="
M 328.00 678.00 
C 324.67 678.00 321.33 678.00 318.00 678.00
C 318.00 694.67 318.00 711.33 318.00 728.00
C 321.33 728.00 324.67 728.00 328.00 728.00
C 328.00 711.33 328.00 694.67 328.00 678.00 Z"/>
</g>
<g fill="none" fill-opacity="1.00" stroke="None">
<path d="
M 459.00 728.00 
C 459.00 711.33 459.00 694.67 459.00 678.00
C 455.83 680.22 458.56 691.01 458.00 695.00 C 457.44 698.99 457.62 708.06 458.00 712.00 C 458.38 715.94 455.96 725.87 459.00 728.00 Z"/>
</g>
<g fill="none" fill-opacity="1.00" stroke="None">
<path d="
M 657.00 697.00 
C 657.29 680.73 632.08 682.58 633.00 698.00
C 640.92 697.39 649.49 699.25 657.00 697.00 Z"/>
</g>
<g fill="none" fill-opacity="1.00" stroke="None">
<path d="
M 424.00 686.00 
C 404.73 681.52 396.71 711.91 414.93 719.07 C 433.15 726.23 441.44 690.06 424.00 686.00 Z"/>
</g>
<g fill="none" fill-opacity="1.00" stroke="None">
<path d="
M 545.00 686.00 
C 524.65 680.96 516.40 711.87 534.93 720.07 C 553.45 728.28 562.68 690.38 545.00 686.00 Z"/>
</g>
<g fill="none" fill-opacity="1.00" stroke="None">
<path d="
M 723.00 728.00 
C 726.67 725.43 722.95 714.58 724.00 710.00 C 725.05 705.42 723.87 696.18 723.00 692.00
C 724.08 703.90 722.19 716.07 723.00 728.00 Z"/>
</g>
<g fill="none" fill-opacity="1.00" stroke="None">
<path d="
M 493.00 728.00 
C 492.56 717.45 494.03 705.82 492.00 696.00
C 492.42 700.65 491.19 708.71 492.00 713.00 C 492.81 717.29 489.67 725.67 493.00 728.00 Z"/>
</g>
<g fill="none" fill-opacity="1.00" stroke="None">
<path d="
M 714.00 728.00 
C 713.56 717.44 715.03 705.82 713.00 696.00
C 713.42 700.65 712.19 708.72 713.00 713.00 C 713.81 717.29 710.67 725.67 714.00 728.00 Z"/>
</g>
<g fill="none" fill-opacity="1.00" stroke="None">
<path d="
M 373.00 704.00 
C 365.05 701.00 343.79 709.23 352.77 719.23 C 361.75 729.22 376.25 712.88 373.00 704.00 Z"/>
</g>
</svg>